<?xml version="1.0" encoding="UTF-8" standalone="no"?>
<!-- Created with Inkscape (http://www.inkscape.org/) -->

<svg
   width="126.42392mm"
   height="79.63044mm"
   viewBox="0 0 126.42392 79.630437"
   version="1.1"
   id="svg5"
   inkscape:version="1.2.2 (732a01da63, 2022-12-09)"
   sodipodi:docname="IPWA01-01_Logo.svg"
   inkscape:export-filename="IPWA01-01_Logo.png"
   inkscape:export-xdpi="96"
   inkscape:export-ydpi="96"
   xmlns:inkscape="http://www.inkscape.org/namespaces/inkscape"
   xmlns:sodipodi="http://sodipodi.sourceforge.net/DTD/sodipodi-0.dtd"
   xmlns:xlink="http://www.w3.org/1999/xlink"
   xmlns="http://www.w3.org/2000/svg"
   xmlns:svg="http://www.w3.org/2000/svg">
  <sodipodi:namedview
     id="namedview7"
     pagecolor="#ffffff"
     bordercolor="#000000"
     borderopacity="0.25"
     inkscape:showpageshadow="2"
     inkscape:pageopacity="0.0"
     inkscape:pagecheckerboard="0"
     inkscape:deskcolor="#d1d1d1"
     inkscape:document-units="mm"
     showgrid="false"
     inkscape:zoom="1"
     inkscape:cx="172.5"
     inkscape:cy="194.5"
     inkscape:window-width="1920"
     inkscape:window-height="1012"
     inkscape:window-x="-8"
     inkscape:window-y="-8"
     inkscape:window-maximized="1"
     inkscape:current-layer="layer2" />
  <defs
     id="defs2">
    <inkscape:path-effect
       effect="bspline"
       id="path-effect11444"
       is_visible="true"
       lpeversion="1"
       weight="33.333333"
       steps="2"
       helper_size="0"
       apply_no_weight="true"
       apply_with_weight="true"
       only_selected="false" />
    <inkscape:path-effect
       effect="bspline"
       id="path-effect11273"
       is_visible="true"
       lpeversion="1"
       weight="33.333333"
       steps="2"
       helper_size="0"
       apply_no_weight="true"
       apply_with_weight="true"
       only_selected="false" />
    <inkscape:path-effect
       effect="bspline"
       id="path-effect11269"
       is_visible="true"
       lpeversion="1"
       weight="33.333333"
       steps="2"
       helper_size="0"
       apply_no_weight="true"
       apply_with_weight="true"
       only_selected="false" />
    <inkscape:path-effect
       effect="bspline"
       id="path-effect11202"
       is_visible="true"
       lpeversion="1"
       weight="33.333333"
       steps="2"
       helper_size="0"
       apply_no_weight="true"
       apply_with_weight="true"
       only_selected="false" />
    <inkscape:path-effect
       effect="bspline"
       id="path-effect11131"
       is_visible="true"
       lpeversion="1"
       weight="33.333333"
       steps="2"
       helper_size="0"
       apply_no_weight="true"
       apply_with_weight="true"
       only_selected="false" />
    <rect
       x="55.714671"
       y="-193.74726"
       width="91.640593"
       height="93.338091"
       id="rect9322" />
    <linearGradient
       inkscape:collect="always"
       id="linearGradient8384">
      <stop
         style="stop-color:#b8c5e0;stop-opacity:1;"
         offset="0.2"
         id="stop8380" />
      <stop
         style="stop-color:#b8c5e0;stop-opacity:0;"
         offset="1"
         id="stop8382" />
    </linearGradient>
    <linearGradient
       id="linearGradient6443"
       inkscape:swatch="solid">
      <stop
         style="stop-color:#83bd0f;stop-opacity:1;"
         offset="0"
         id="stop6441" />
    </linearGradient>
    <inkscape:path-effect
       effect="bspline"
       id="path-effect3575"
       is_visible="true"
       lpeversion="1"
       weight="33.333333"
       steps="2"
       helper_size="0"
       apply_no_weight="true"
       apply_with_weight="true"
       only_selected="false" />
    <inkscape:path-effect
       effect="bspline"
       id="path-effect3569"
       is_visible="true"
       lpeversion="1"
       weight="33.333333"
       steps="2"
       helper_size="0"
       apply_no_weight="true"
       apply_with_weight="true"
       only_selected="false" />
    <inkscape:path-effect
       effect="bspline"
       id="path-effect1754"
       is_visible="true"
       lpeversion="1"
       weight="33.333333"
       steps="2"
       helper_size="0"
       apply_no_weight="true"
       apply_with_weight="true"
       only_selected="false" />
    <inkscape:path-effect
       effect="bspline"
       id="path-effect1750"
       is_visible="true"
       lpeversion="1"
       weight="33.333333"
       steps="2"
       helper_size="0"
       apply_no_weight="true"
       apply_with_weight="true"
       only_selected="false" />
    <inkscape:path-effect
       effect="bspline"
       id="path-effect1746"
       is_visible="true"
       lpeversion="1"
       weight="33.333333"
       steps="2"
       helper_size="0"
       apply_no_weight="true"
       apply_with_weight="true"
       only_selected="false" />
    <inkscape:path-effect
       effect="bspline"
       id="path-effect1742"
       is_visible="true"
       lpeversion="1"
       weight="33.333333"
       steps="2"
       helper_size="0"
       apply_no_weight="true"
       apply_with_weight="true"
       only_selected="false" />
    <rect
       x="161.14279"
       y="106.26122"
       width="152.5545"
       height="90.601895"
       id="rect603" />
    <filter
       inkscape:label="Channel Transparency"
       style="color-interpolation-filters:sRGB;"
       id="filter6019"
       x="-0.010787724"
       y="-0.011489065"
       width="1.0215751"
       height="1.022975">
      <feColorMatrix
         values="1 0 0 0 0 0 1 0 0 0 0 0 1 0 0 -1 0.5 0.5 0.8 0 "
         in="SourceGraphic"
         result="colormatrix"
         id="feColorMatrix6015" />
      <feComposite
         in="colormatrix"
         in2="SourceGraphic"
         operator="in"
         result="composite1"
         id="feComposite6017" />
    </filter>
    <filter
       style="color-interpolation-filters:sRGB;"
       inkscape:label="Drop Shadow"
       id="filter6753"
       x="-0.1292272"
       y="-0.17631842"
       width="1.3257422"
       height="1.4373826">
      <feFlood
         flood-opacity="0.498039"
         flood-color="rgb(0,0,0)"
         result="flood"
         id="feFlood6743" />
      <feComposite
         in="flood"
         in2="SourceGraphic"
         operator="in"
         result="composite1"
         id="feComposite6745" />
      <feGaussianBlur
         in="composite1"
         stdDeviation="3.4"
         result="blur"
         id="feGaussianBlur6747" />
      <feOffset
         dx="5.2"
         dy="4.8"
         result="offset"
         id="feOffset6749" />
      <feComposite
         in="SourceGraphic"
         in2="offset"
         operator="over"
         result="composite2"
         id="feComposite6751" />
    </filter>
    <filter
       inkscape:label="Blur"
       style="color-interpolation-filters:sRGB;"
       id="filter7993"
       x="-0.11998925"
       y="-0.13423609"
       width="1.2399793"
       height="1.2684685">
      <feColorMatrix
         values="1 0 0 0 0 0 1 0 0 0 0 0 1 0 0 -1 0.5 0.5 0.8 0 "
         in="SourceGraphic"
         result="colormatrix"
         id="feColorMatrix7989" />
      <feComposite
         in="colormatrix"
         in2="SourceGraphic"
         operator="in"
         result="fbSourceGraphic"
         id="feComposite7991" />
      <feColorMatrix
         result="fbSourceGraphicAlpha"
         in="fbSourceGraphic"
         values="0 0 0 -1 0 0 0 0 -1 0 0 0 0 -1 0 0 0 0 1 0"
         id="feColorMatrix8803" />
      <feGaussianBlur
         id="feGaussianBlur8805"
         stdDeviation="2.4 2.5"
         result="blur"
         in="fbSourceGraphic" />
    </filter>
    <linearGradient
       inkscape:collect="always"
       xlink:href="#linearGradient8384"
       id="linearGradient10904"
       gradientUnits="userSpaceOnUse"
       gradientTransform="matrix(0.93132674,0,0,0.96463727,3.122876,-0.39603687)"
       x1="49.676991"
       y1="27.048405"
       x2="105.64712"
       y2="27.048405" />
    <rect
       x="55.714671"
       y="-193.74726"
       width="199.17562"
       height="104.49709"
       id="rect12100" />
  </defs>
  <g
     inkscape:label="Ebene 1"
     inkscape:groupmode="layer"
     id="layer1"
     style="display:none">
    <path
       style="display:none;fill:#030770;fill-opacity:1;stroke:url(#linearGradient10904);stroke-width:1.51654;stroke-linecap:round;stroke-linejoin:round;stroke-dasharray:none;stroke-opacity:0.0588235;paint-order:stroke fill markers;filter:url(#filter7993)"
       id="path10118"
       sodipodi:type="arc"
       sodipodi:cx="59.2766"
       sodipodi:cy="41.290791"
       sodipodi:rx="27.180651"
       sodipodi:ry="25.196415"
       sodipodi:start="6.0308308"
       sodipodi:end="6.0137665"
       sodipodi:open="true"
       sodipodi:arc-type="arc"
       d="M 85.596364,34.999634 A 27.180651,25.196415 0 0 1 66.175409,65.662105 27.180651,25.196415 0 0 1 33.015697,47.789886 27.180651,25.196415 0 0 1 52.153729,16.974928 a 27.180651,25.196415 0 0 1 33.323,17.609301"
       transform="matrix(1.073737,0,0,1.0366591,-3.3531474,0.41055551)" />
    <g
       id="g1596"
       style="display:none"
       sodipodi:insensitive="true">
      <rect
         style="fill:#00f800;fill-opacity:1;stroke:none;stroke-width:0.7;stroke-linecap:round;stroke-linejoin:round;stroke-dasharray:none;stroke-opacity:1;paint-order:stroke fill markers"
         id="rect1590"
         width="16.392157"
         height="19.802347"
         x="104.29783"
         y="25.722147"
         ry="0"
         rx="0"
         transform="rotate(0.13020866)" />
      <rect
         style="fill:#00f800;fill-opacity:1;stroke:none;stroke-width:0.700571;stroke-linecap:round;stroke-linejoin:round;stroke-dasharray:none;stroke-opacity:1;paint-order:stroke fill markers"
         id="rect1592"
         width="6.3543172"
         height="7.8120384"
         x="80.980186"
         y="-66.115456"
         ry="0"
         rx="0"
         transform="matrix(0.61707147,0.78690711,-0.82081478,0.57119445,0,0)" />
      <rect
         style="fill:#00f800;fill-opacity:1;stroke:none;stroke-width:0.700571;stroke-linecap:round;stroke-linejoin:round;stroke-dasharray:none;stroke-opacity:1;paint-order:stroke fill markers"
         id="rect1594"
         width="6.3543172"
         height="7.8120384"
         x="-47.64423"
         y="111.08421"
         ry="0"
         rx="0"
         transform="matrix(-0.61707147,0.78690711,0.82081478,0.57119445,0,0)" />
    </g>
    <path
       style="display:none;fill:none;fill-opacity:1;stroke:#878b92;stroke-width:0.7;stroke-linecap:round;stroke-linejoin:round;stroke-dasharray:none;stroke-opacity:1;paint-order:stroke fill markers"
       id="path3340"
       sodipodi:type="arc"
       sodipodi:cx="73.76635"
       sodipodi:cy="-3.6374753"
       sodipodi:rx="47.200325"
       sodipodi:ry="8.4856472"
       sodipodi:start="6.0308308"
       sodipodi:end="6.0137665"
       sodipodi:open="true"
       sodipodi:arc-type="arc"
       d="M 119.47171,-5.7562105 A 47.200325,8.4856472 0 0 1 85.746418,4.5702945 47.200325,8.4856472 0 0 1 28.163206,-1.4487103 47.200325,8.4856472 0 0 1 61.39719,-11.82657 a 47.200325,8.4856472 0 0 1 57.86677,5.9304594" />
    <path
       style="display:none;fill:none;fill-opacity:1;stroke:#003077;stroke-width:0.4;stroke-linecap:round;stroke-linejoin:round;stroke-dasharray:none;stroke-opacity:1;paint-order:stroke fill markers"
       d="m 30.307586,45.993967 c -0.227711,-1.723753 -0.455811,-3.450453 -1.202312,-5.734273 -0.746501,-2.28382 -2.01246,-5.125063 -3.612357,-7.372388 -1.599898,-2.247324 -3.518193,-3.885451 -5.30567,-5.095497 -1.787477,-1.210046 -3.380419,-1.953337 -5.025041,-2.561985 -1.644622,-0.608647 -3.233673,-1.04254 -4.856348,-1.485614"
       id="path11200"
       inkscape:path-effect="#path-effect11202"
       inkscape:original-d="M 30.307586,45.993967 C 30.082131,44.269916 29.854032,42.543216 29.623286,40.81387 28.358896,37.975819 27.092937,35.134576 25.825411,32.290147 23.893,30.640004 21.974705,29.001877 20.033343,27.344013 18.399716,26.581879 16.806774,25.838588 15.15795,25.069081 13.517535,24.621355 11.928484,24.187463 10.305858,23.74421"
       sodipodi:nodetypes="cccccc" />
    <path
       id="path11327"
       style="display:none;fill:none;fill-opacity:1;stroke:#003077;stroke-width:0.4;stroke-linecap:round;stroke-linejoin:round;stroke-dasharray:none;stroke-opacity:1;paint-order:stroke fill markers"
       d="m 100.49598,35.480089 a 2.7034193,2.6235515 4.6032642 0 0 -0.727735,-0.157776 2.7034193,2.6235515 4.6032642 0 0 -2.752732,1.724317 l -0.08754,-0.02967 a 2.7034193,2.6235515 4.6032642 0 0 0.146554,-0.64612 l 0.0018,-0.04399 a 2.7034193,2.6235515 4.6032642 0 0 -1.704646,-2.640065 2.7034193,2.6235515 4.6032642 0 0 -0.783087,-0.17862 2.7034193,2.6235515 4.6032642 0 0 -2.901764,2.389674 2.7034193,2.6235515 4.6032642 0 0 0.244304,1.317059 l 2.571297,6.591011 6.520859,-3.637331 -0.0216,-0.0066 a 2.7034193,2.6235515 4.6032642 0 0 1.24708,-1.976172 l 0.002,-0.04399 a 2.7034193,2.6235515 4.6032642 0 0 -1.75997,-2.660929 z" />
  </g>
  <g
     inkscape:groupmode="layer"
     id="layer2"
     inkscape:label="Ebene 2">
    <path
       id="path3633"
       style="display:inline;fill:none;fill-opacity:1;stroke:#b8c5e0;stroke-width:1.3;stroke-linecap:round;stroke-linejoin:round;stroke-dasharray:none;stroke-opacity:1;paint-order:stroke fill markers"
       d="m 108.01225,39.725913 c 0,0 -0.50199,-1.426623 -1.49449,-2.118734 l -0.20773,-0.139527 C 99.392213,32.963871 73.524295,30.312837 48.443267,31.537265 27.890411,32.541949 13.626565,35.896778 13.627308,39.725913"
       sodipodi:nodetypes="ccccc" />
    <path
       style="fill:none;stroke:#003077;stroke-width:2.5;stroke-linecap:round;stroke-linejoin:round;paint-order:stroke fill markers;stroke-opacity:1"
       id="path429"
       sodipodi:type="arc"
       sodipodi:cx="60.823498"
       sodipodi:cy="39.81525"
       sodipodi:rx="33.358696"
       sodipodi:ry="33.358696"
       sodipodi:start="6.0308308"
       sodipodi:end="6.0137665"
       sodipodi:open="true"
       sodipodi:arc-type="arc"
       d="M 93.125631,31.486098 A 33.358696,33.358696 0 0 1 69.290377,72.081557 33.358696,33.358696 0 0 1 28.593605,48.419703 33.358696,33.358696 0 0 1 52.081629,7.6223579 33.358696,33.358696 0 0 1 92.978804,30.936124" />
    <path
       style="fill:none;stroke:#003077;stroke-width:2.5;stroke-linecap:round;stroke-linejoin:round;paint-order:stroke fill markers;stroke-opacity:1"
       id="path539"
       sodipodi:type="arc"
       sodipodi:cx="60.823643"
       sodipodi:cy="39.81525"
       sodipodi:rx="23.847633"
       sodipodi:ry="33.358696"
       sodipodi:start="6.0308308"
       sodipodi:end="6.0137665"
       sodipodi:open="true"
       sodipodi:arc-type="arc"
       d="M 83.915955,31.486098 A 23.847633,33.358696 0 0 1 66.876488,72.081557 23.847633,33.358696 0 0 1 37.782974,48.419703 23.847633,33.358696 0 0 1 54.574211,7.6223579 23.847633,33.358696 0 0 1 83.810991,30.936124" />
    <path
       style="fill:none;stroke:#003077;stroke-width:2.5;stroke-linecap:round;stroke-linejoin:round;paint-order:stroke fill markers;stroke-opacity:1"
       id="path541"
       sodipodi:type="arc"
       sodipodi:cx="60.819832"
       sodipodi:cy="39.81525"
       sodipodi:rx="13.583529"
       sodipodi:ry="33.358696"
       sodipodi:start="6.0308308"
       sodipodi:end="6.0137665"
       sodipodi:open="true"
       sodipodi:arc-type="arc"
       d="M 73.973133,31.486098 A 13.583529,33.358696 0 0 1 64.267512,72.081557 13.583529,33.358696 0 0 1 47.695947,48.419703 13.583529,33.358696 0 0 1 57.260177,7.6223579 13.583529,33.358696 0 0 1 73.913346,30.936124" />
    <path
       style="fill:none;stroke:#003077;stroke-width:2.5;stroke-linecap:round;stroke-linejoin:round;paint-order:stroke fill markers;stroke-opacity:1"
       id="path543"
       sodipodi:type="arc"
       sodipodi:cx="-60.819775"
       sodipodi:cy="39.807175"
       sodipodi:rx="0.2929312"
       sodipodi:ry="33.358696"
       sodipodi:start="6.0308308"
       sodipodi:end="6.0137665"
       sodipodi:open="true"
       sodipodi:arc-type="arc"
       d="m -60.536121,31.478023 a 0.2929312,33.358696 0 0 1 -0.209304,40.595458 0.2929312,33.358696 0 0 1 -0.357369,-23.661854 0.2929312,33.358696 0 0 1 0.206255,-40.7973449 0.2929312,33.358696 0 0 1 0.359128,23.3137669"
       transform="scale(-1,1)" />
    <path
       style="fill:none;stroke:#003077;stroke-width:2.5;stroke-linecap:round;stroke-linejoin:round;paint-order:stroke fill markers;stroke-opacity:1"
       id="path545"
       sodipodi:type="arc"
       sodipodi:cx="60.823498"
       sodipodi:cy="39.815399"
       sodipodi:rx="33.358696"
       sodipodi:ry="24.228056"
       sodipodi:start="6.0308308"
       sodipodi:end="6.0137665"
       sodipodi:open="true"
       sodipodi:arc-type="arc"
       d="M 93.125631,33.766027 A 33.358696,24.228056 0 0 1 69.290377,63.250065 33.358696,24.228056 0 0 1 28.593605,46.064719 33.358696,24.228056 0 0 1 52.081629,16.434054 33.358696,24.228056 0 0 1 92.978804,33.366587" />
    <path
       style="fill:none;stroke:#003077;stroke-width:2.5;stroke-linecap:round;stroke-linejoin:round;paint-order:stroke fill markers;stroke-opacity:1"
       id="path547"
       sodipodi:type="arc"
       sodipodi:cx="60.823498"
       sodipodi:cy="39.815399"
       sodipodi:rx="33.358696"
       sodipodi:ry="13.957462"
       sodipodi:start="6.0308308"
       sodipodi:end="6.0137665"
       sodipodi:open="true"
       sodipodi:arc-type="arc"
       d="M 93.125631,36.330436 A 33.358696,13.957462 0 0 1 69.290377,53.3158 33.358696,13.957462 0 0 1 28.593605,43.415549 33.358696,13.957462 0 0 1 52.081629,26.345715 33.358696,13.957462 0 0 1 92.978804,36.100324" />
    <path
       style="fill:#003077;fill-opacity:1;stroke:none;stroke-width:1.9;stroke-linecap:round;stroke-linejoin:round;stroke-dasharray:none;stroke-opacity:1;paint-order:stroke fill markers"
       id="path10958"
       sodipodi:type="arc"
       sodipodi:cx="60.823498"
       sodipodi:cy="41.780754"
       sodipodi:rx="26.500671"
       sodipodi:ry="26.193409"
       sodipodi:start="6.0308308"
       sodipodi:end="6.0137665"
       sodipodi:open="true"
       sodipodi:arc-type="arc"
       d="M 86.484819,35.240664 A 26.500671,26.193409 0 0 1 67.549719,67.116414 26.500671,26.193409 0 0 1 35.219565,48.537011 26.500671,26.193409 0 0 1 53.87882,16.50274 26.500671,26.193409 0 0 1 86.368177,34.808822" />
    <g
       id="g1582"
       transform="matrix(-0.95017495,-0.34353394,-0.45333153,1.1899869,222.09386,33.207481)"
       style="stroke-width:0.881671;stroke:#000000;stroke-opacity:0">
      <path
         id="rect1365"
         style="fill:#83bd0f;fill-opacity:1;stroke:#000000;stroke-width:0.617173;stroke-linecap:round;stroke-linejoin:round;paint-order:stroke fill markers;stroke-opacity:0"
         d="m 104.29765,25.722004 -6.401851,4.47682 3.932561,4.991288 2.46932,-1.726958 2e-5,12.06131 16.39232,-4.6e-5 -8e-5,-12.087148 2.46109,1.704384 3.90932,-5.009108 -6.42213,-4.447677 -0.0289,0.03727 -3.35639,-1.24e-4 a 2.4743989,4.9374018 89.869791 0 1 -3.52751,1.790858 2.4743989,4.9374018 89.869791 0 1 -6.02789,-1.741237 2.4743989,4.9374018 89.869791 0 1 -0.0229,-0.04956 z"
         transform="rotate(0.13020866)" />
    </g>
    <path
       style="fill:#83bd0f;fill-opacity:1;stroke:none;stroke-width:0.699998;stroke-linecap:round;stroke-linejoin:round;stroke-dasharray:none;stroke-opacity:1;paint-order:stroke fill markers"
       d="m 12.586257,29.518689 c 1.722305,5.351038 3.381273,15.650549 7.227342,19.070957 3.84607,3.420409 9.877778,-0.04231 12.957076,-3.906984 3.079297,-3.864676 3.206871,-8.129634 0.444318,-11.776041 -2.762552,-3.646407 -8.405513,-6.66285 -12.235262,-8.210731 -3.829749,-1.547881 -5.840318,-1.623276 -7.819034,-1.598497 -1.978716,0.02478 -3.924177,0.149795 -4.004047,0.411364 -0.07987,0.26157 1.707302,0.658895 3.429607,6.009932 z"
       id="path1752"
       inkscape:path-effect="#path-effect1754"
       inkscape:original-d="m 12.648662,24.56443 c 1.660016,10.305278 3.318984,20.604789 4.978553,30.908769 6.03255,-3.462977 12.064258,-6.925693 18.095121,-10.388147 0.127783,-4.267062 0.255356,-8.53202 0.382966,-12.803102 -5.652889,-3.021684 -11.295849,-6.038128 -16.946225,-9.058601 -2.009156,-0.07372 -4.019725,-0.149122 -6.031708,-0.226186 -1.945378,0.125166 -3.8908393,0.250176 -5.8402246,0.375291 1.7896123,0.397978 3.5767846,0.795303 5.3615176,1.191976 z"
       sodipodi:nodetypes="cccccccc" />
    <path
       style="fill:none;fill-opacity:1;stroke:#83bd0f;stroke-width:2.1;stroke-linecap:round;stroke-linejoin:round;stroke-dasharray:none;stroke-opacity:1;paint-order:stroke fill markers"
       d="m 30.492279,47.10282 c 1.098322,1.76318 2.194716,3.523265 2.840414,5.432517 0.645699,1.909252 0.842354,3.967893 1.038735,6.023661"
       id="path11442"
       inkscape:path-effect="#path-effect11444"
       inkscape:original-d="m 30.492279,47.10282 c 1.099042,1.762731 2.195436,3.522816 3.289183,5.280256 0.199303,2.061286 0.395957,4.119927 0.589966,6.175922" />
    <path
       id="path3636"
       style="display:inline;fill:none;fill-opacity:1;stroke:#b8c5e0;stroke-width:1.3;stroke-linecap:round;stroke-linejoin:round;stroke-dasharray:none;stroke-opacity:1;paint-order:stroke fill markers"
       d="m 108.01225,39.896746 c 0,0 -0.50198,1.42662 -1.49449,2.11873 l -0.20773,0.13953 c -6.917814,4.50378 -32.785732,7.15481 -57.86676,5.93039 -20.552856,-1.00469 -34.816702,-4.35952 -34.815959,-8.18865"
       sodipodi:nodetypes="ccccc" />
    <text
       xml:space="preserve"
       transform="matrix(0.42811634,0,0,0.42678575,17.804565,100.132)"
       id="text9320"
       style="font-style:normal;font-variant:normal;font-weight:normal;font-stretch:semi-condensed;font-size:80px;font-family:'Barlow Semi Condensed';-inkscape-font-specification:'Barlow Semi Condensed, Semi-Condensed';font-variant-ligatures:normal;font-variant-caps:normal;font-variant-numeric:normal;font-variant-east-asian:normal;text-align:center;white-space:pre;shape-inside:url(#rect9322);display:inline;fill:#b826e0;fill-opacity:1;stroke:#83bd0f;stroke-width:4.44496;stroke-linecap:round;stroke-linejoin:round;stroke-dasharray:none;stroke-opacity:1;paint-order:stroke fill markers"><tspan
         x="56.535156"
         y="-117.08138"
         id="tspan13480"><tspan
           style="fill:#83bd0f"
           id="tspan13478">HU</tspan></tspan></text>
    <text
       xml:space="preserve"
       transform="matrix(0.38474375,0,0,0.38354799,1.6731746,125.5641)"
       id="text12098"
       style="font-style:normal;font-variant:normal;font-weight:600;font-stretch:semi-condensed;font-size:20.6327px;font-family:'Barlow Semi Condensed';-inkscape-font-specification:'Barlow Semi Condensed, Semi-Bold Semi-Condensed';font-variant-ligatures:normal;font-variant-caps:normal;font-variant-numeric:normal;font-variant-east-asian:normal;text-align:center;white-space:pre;shape-inside:url(#rect12100);display:inline;fill:#b826e0;fill-opacity:1;stroke:#83bd0f;stroke-width:4.94605;stroke-linecap:round;stroke-linejoin:round;stroke-dasharray:none;stroke-opacity:1;paint-order:stroke fill markers"><tspan
         x="108.67279"
         y="-173.97504"
         id="tspan13484"><tspan
           style="fill:#83bd0f;stroke:none"
           id="tspan13482">Für alle e.V.</tspan></tspan></text>
  </g>
</svg>
